{
    "asset" : {
        "generator" : "Khronos glTF Blender I/O v1.6.16",
        "version" : "2.0"
    },
    "scene" : 0,
    "scenes" : [
        {
            "name" : "Scene",
            "nodes" : [
                1,
                2,
                3,
                4,
                5,
                6,
                7,
                8,
                9,
                10,
                11,
                12
            ]
        }
    ],
    "nodes" : [
        {
            "camera" : 0,
            "name" : "Camera_Orientation",
            "rotation" : [
                -0.7071067690849304,
                0,
                0,
                0.7071067690849304
            ]
        },
        {
            "children" : [
                0
            ],
            "name" : "Camera",
            "rotation" : [
                0.7071068286895752,
                0,
                0,
                0.7071068286895752
            ]
        },
        {
            "name" : "hit2",
            "scale" : [
                0.2195846438407898,
                0.2195846438407898,
                0.2195846438407898
            ],
            "translation" : [
                -0.699999988079071,
                -3,
                -3.6030731201171875
            ]
        },
        {
            "name" : "hit1",
            "scale" : [
                0.2195846438407898,
                0.2195846438407898,
                0.2195846438407898
            ],
            "translation" : [
                0.699999988079071,
                -3,
                -3.6030731201171875
            ]
        },
        {
            "mesh" : 0,
            "name" : "player",
            "rotation" : [
                0.7071068286895752,
                0,
                0,
                0.7071068286895752
            ],
            "scale" : [
                0.30000001192092896,
                1,
                0.30000001192092896
            ],
            "translation" : [
                0,
                -3.041710138320923,
                -3.589930295944214
            ]
        },
        {
            "mesh" : 1,
            "name" : "backtground",
            "rotation" : [
                0.7071068286895752,
                0,
                0,
                0.7071068286895752
            ],
            "scale" : [
                12.136054039001465,
                12.136054039001465,
                12.136054039001465
            ],
            "translation" : [
                0,
                0,
                -20
            ]
        },
        {
            "mesh" : 2,
            "name" : "circle",
            "rotation" : [
                0.7071068286895752,
                0,
                0,
                0.7071068286895752
            ],
            "translation" : [
                0,
                2.168804883956909,
                -3.6027276515960693
            ]
        },
        {
            "name" : "destroy",
            "translation" : [
                0,
                -5,
                -3.602567672729492
            ]
        },
        {
            "name" : "generator2",
            "scale" : [
                0.2195846438407898,
                0.2195846438407898,
                0.2195846438407898
            ],
            "translation" : [
                -0.699999988079071,
                3.9803905487060547,
                -3.6030731201171875
            ]
        },
        {
            "name" : "generator1",
            "scale" : [
                0.2195846438407898,
                0.2195846438407898,
                0.2195846438407898
            ],
            "translation" : [
                0.699999988079071,
                3.9803905487060547,
                -3.6030731201171875
            ]
        },
        {
            "mesh" : 3,
            "name" : "square",
            "rotation" : [
                0.7071068286895752,
                0,
                0,
                0.7071068286895752
            ],
            "translation" : [
                0,
                0,
                -3.5899300575256348
            ]
        },
        {
            "name" : "score",
            "scale" : [
                1,
                0.26845359802246094,
                0.4034160375595093
            ],
            "translation" : [
                -0.028632283210754395,
                3.321340799331665,
                -2.2484028339385986
            ]
        },
        {
            "mesh" : 4,
            "name" : "targetSquare",
            "rotation" : [
                0.697266161441803,
                0.11755825579166412,
                0.11755826324224472,
                0.6972661018371582
            ],
            "scale" : [
                26.919219970703125,
                26.91921615600586,
                26.919219970703125
            ],
            "translation" : [
                0.7730708718299866,
                -2.615078926086426,
                -2.3771414756774902
            ]
        }
    ],
    "cameras" : [
        {
            "name" : "Camera",
            "orthographic" : {
                "xmag" : 7.314285755157471,
                "ymag" : 7.314285755157471,
                "zfar" : 100,
                "znear" : 0.10000000149011612
            },
            "type" : "orthographic"
        }
    ],
    "materials" : [
        {
            "doubleSided" : true,
            "name" : "Material",
            "pbrMetallicRoughness" : {
                "baseColorTexture" : {
                    "index" : 0
                },
                "metallicFactor" : 0,
                "roughnessFactor" : 0.4000000059604645
            }
        }
    ],
    "meshes" : [
        {
            "name" : "Plane",
            "primitives" : [
                {
                    "attributes" : {
                        "POSITION" : 0,
                        "NORMAL" : 1,
                        "TEXCOORD_0" : 2
                    },
                    "indices" : 3,
                    "material" : 0
                }
            ]
        },
        {
            "name" : "Plane.001",
            "primitives" : [
                {
                    "attributes" : {
                        "POSITION" : 4,
                        "NORMAL" : 5,
                        "TEXCOORD_0" : 6
                    },
                    "indices" : 7,
                    "material" : 0
                }
            ]
        },
        {
            "name" : "Plane.002",
            "primitives" : [
                {
                    "attributes" : {
                        "POSITION" : 8,
                        "NORMAL" : 9,
                        "TEXCOORD_0" : 10
                    },
                    "indices" : 11,
                    "material" : 0
                }
            ]
        },
        {
            "name" : "Plane.003",
            "primitives" : [
                {
                    "attributes" : {
                        "POSITION" : 12,
                        "NORMAL" : 13,
                        "TEXCOORD_0" : 14
                    },
                    "indices" : 7,
                    "material" : 0
                }
            ]
        },
        {
            "name" : "Plane.004",
            "primitives" : [
                {
                    "attributes" : {
                        "POSITION" : 15,
                        "NORMAL" : 16,
                        "TEXCOORD_0" : 17
                    },
                    "indices" : 7,
                    "material" : 0
                }
            ]
        }
    ],
    "textures" : [
        {
            "sampler" : 0,
            "source" : 0
        }
    ],
    "images" : [
        {
            "bufferView" : 4,
            "mimeType" : "image/png",
            "name" : "1bit-monitor-glow-1x"
        }
    ],
    "accessors" : [
        {
            "bufferView" : 0,
            "componentType" : 5126,
            "count" : 64,
            "max" : [
                0.7059792280197144,
                0,
                0.6636208295822144
            ],
            "min" : [
                -0.7059792280197144,
                0,
                -0.7483376264572144
            ],
            "type" : "VEC3"
        },
        {
            "bufferView" : 1,
            "componentType" : 5126,
            "count" : 64,
            "type" : "VEC3"
        },
        {
            "bufferView" : 2,
            "componentType" : 5126,
            "count" : 64,
            "type" : "VEC2"
        },
        {
            "bufferView" : 3,
            "componentType" : 5123,
            "count" : 192,
            "type" : "SCALAR"
        },
        {
            "bufferView" : 5,
            "componentType" : 5126,
            "count" : 4,
            "max" : [
                1,
                0,
                1
            ],
            "min" : [
                -1,
                0,
                -1
            ],
            "type" : "VEC3"
        },
        {
            "bufferView" : 6,
            "componentType" : 5126,
            "count" : 4,
            "type" : "VEC3"
        },
        {
            "bufferView" : 7,
            "componentType" : 5126,
            "count" : 4,
            "type" : "VEC2"
        },
        {
            "bufferView" : 8,
            "componentType" : 5123,
            "count" : 6,
            "type" : "SCALAR"
        },
        {
            "bufferView" : 9,
            "componentType" : 5126,
            "count" : 32,
            "max" : [
                0.13684555888175964,
                0,
                0.1482240855693817
            ],
            "min" : [
                -0.13684555888175964,
                0,
                -0.12546703219413757
            ],
            "type" : "VEC3"
        },
        {
            "bufferView" : 10,
            "componentType" : 5126,
            "count" : 32,
            "type" : "VEC3"
        },
        {
            "bufferView" : 11,
            "componentType" : 5126,
            "count" : 32,
            "type" : "VEC2"
        },
        {
            "bufferView" : 12,
            "componentType" : 5123,
            "count" : 90,
            "type" : "SCALAR"
        },
        {
            "bufferView" : 13,
            "componentType" : 5126,
            "count" : 4,
            "max" : [
                0.12091618776321411,
                0,
                0.12091618776321411
            ],
            "min" : [
                -0.12091618776321411,
                0,
                -0.12091618776321411
            ],
            "type" : "VEC3"
        },
        {
            "bufferView" : 14,
            "componentType" : 5126,
            "count" : 4,
            "type" : "VEC3"
        },
        {
            "bufferView" : 15,
            "componentType" : 5126,
            "count" : 4,
            "type" : "VEC2"
        },
        {
            "bufferView" : 16,
            "componentType" : 5126,
            "count" : 4,
            "max" : [
                0.12091618776321411,
                0,
                0.12091618776321411
            ],
            "min" : [
                -0.12091618776321411,
                0,
                -0.12091618776321411
            ],
            "type" : "VEC3"
        },
        {
            "bufferView" : 17,
            "componentType" : 5126,
            "count" : 4,
            "type" : "VEC3"
        },
        {
            "bufferView" : 18,
            "componentType" : 5126,
            "count" : 4,
            "type" : "VEC2"
        }
    ],
    "bufferViews" : [
        {
            "buffer" : 0,
            "byteLength" : 768,
            "byteOffset" : 0
        },
        {
            "buffer" : 0,
            "byteLength" : 768,
            "byteOffset" : 768
        },
        {
            "buffer" : 0,
            "byteLength" : 512,
            "byteOffset" : 1536
        },
        {
            "buffer" : 0,
            "byteLength" : 384,
            "byteOffset" : 2048
        },
        {
            "buffer" : 0,
            "byteLength" : 106,
            "byteOffset" : 2432
        },
        {
            "buffer" : 0,
            "byteLength" : 48,
            "byteOffset" : 2540
        },
        {
            "buffer" : 0,
            "byteLength" : 48,
            "byteOffset" : 2588
        },
        {
            "buffer" : 0,
            "byteLength" : 32,
            "byteOffset" : 2636
        },
        {
            "buffer" : 0,
            "byteLength" : 12,
            "byteOffset" : 2668
        },
        {
            "buffer" : 0,
            "byteLength" : 384,
            "byteOffset" : 2680
        },
        {
            "buffer" : 0,
            "byteLength" : 384,
            "byteOffset" : 3064
        },
        {
            "buffer" : 0,
            "byteLength" : 256,
            "byteOffset" : 3448
        },
        {
            "buffer" : 0,
            "byteLength" : 180,
            "byteOffset" : 3704
        },
        {
            "buffer" : 0,
            "byteLength" : 48,
            "byteOffset" : 3884
        },
        {
            "buffer" : 0,
            "byteLength" : 48,
            "byteOffset" : 3932
        },
        {
            "buffer" : 0,
            "byteLength" : 32,
            "byteOffset" : 3980
        },
        {
            "buffer" : 0,
            "byteLength" : 48,
            "byteOffset" : 4012
        },
        {
            "buffer" : 0,
            "byteLength" : 48,
            "byteOffset" : 4060
        },
        {
            "buffer" : 0,
            "byteLength" : 32,
            "byteOffset" : 4108
        }
    ],
    "samplers" : [
        {
            "magFilter" : 9728,
            "minFilter" : 9984
        }
    ],
    "buffers" : [
        {
            "byteLength" : 4140,
            "uri" : "data:application/octet-stream;base64,"
        }
    ]
}
